# xmcd
#
# Track frame offsets: 
#        150
#        23127
#        44796
#        64283
#        88295
#        117732
#        142339
#        159819
#        183641
#        205308
#        221772
#
# Disc length: 3292 seconds
#
# Revision: 0
# Processed by: cddbd v1.5.2PL0 Copyright (c) Steve Scherf et al.
# Submitted via: ExactAudioCopy v1.0b4
#
DISCID=b50cda0b
DTITLE=Third Man - Dream On
DYEAR=1998
DGENRE=Spiritual, Bhajans
TTITLE0=Sri Ganesha Jaya Ganesha
TTITLE1=Govinda Madhava Gopala Keshava
TTITLE2=Hari Om
TTITLE3=Govinda Bolo Gopala Bolo
TTITLE4=Madhusudana Murali Dhari
TTITLE5=Govinda Gopala Narayana Hari
TTITLE6=Ho Allah Ho Akhbar
TTITLE7=Hara Hara Gange
TTITLE8=Amazing Grace
TTITLE9=Nanda Nandana Hari Govinda Cop
TTITLE10=Dream On
EXTD=
EXTT0=
EXTT1=
EXTT2=
EXTT3=
EXTT4=
EXTT5=
EXTT6=
EXTT7=
EXTT8=
EXTT9=
EXTT10=
PLAYORDER=
